<svg width="32" height="32" viewBox="0 0 32 32" fill="none" xmlns="http://www.w3.org/2000/svg">
<rect width="32" height="32" rx="6" fill="#0A0B0D"/>
<path d="M8 8H12V14.4L17.6 8H22.8L16.8 14.8L23.2 24H18.2L13.8 17.6L12 19.6V24H8V8Z" fill="#32F08C"/>
<rect x="20.5" y="20.5" width="8" height="8" rx="2" fill="#32F08C"/>
<path d="M22.5 24.4H25.4C26.2 24.4 26.8 23.9 26.8 23.1C26.8 22.3 26.2 21.8 25.4 21.8H22.5V24.4ZM23.7 23.4V22.8H25.3C25.6 22.8 25.8 22.9 25.8 23.1C25.8 23.3 25.6 23.4 25.3 23.4H23.7Z" fill="#0A0B0D"/>
</svg>
